<?xml version="1.0" encoding="UTF-8" standalone="no"?>
<svg
   xmlns:dc="http://purl.org/dc/elements/1.1/"
   xmlns:cc="http://creativecommons.org/ns#"
   xmlns:rdf="http://www.w3.org/1999/02/22-rdf-syntax-ns#"
   xmlns:svg="http://www.w3.org/2000/svg"
   xmlns="http://www.w3.org/2000/svg"
   xmlns:xlink="http://www.w3.org/1999/xlink"
   width="186.69325"
   height="206.07425"
   id="svg5378"
   version="1.1">
  <defs
     id="defs3">
    <linearGradient
       id="linearGradient6035">
      <stop
         id="stop6037"
         offset="0"
         style="stop-color:#ffffff;stop-opacity:1;" />
      <stop
         id="stop6039"
         offset="1"
         style="stop-color:#ffffff;stop-opacity:0;" />
    </linearGradient>
    <linearGradient
       id="linearGradient5495">
      <stop
         style="stop-color:#c6c6c6;stop-opacity:1"
         offset="0"
         id="stop5497" />
      <stop
         id="stop5501"
         offset="0.20484632"
         style="stop-color:#e3e3e3;stop-opacity:1" />
      <stop
         style="stop-color:#a5a5a8;stop-opacity:1"
         offset="1"
         id="stop5499" />
    </linearGradient>
    <linearGradient
       id="linearGradient5474">
      <stop
         id="stop5476"
         offset="0"
         style="stop-color:#c3c3c3;stop-opacity:1" />
      <stop
         style="stop-color:#808184;stop-opacity:1"
         offset="0.38759774"
         id="stop5482" />
      <stop
         id="stop5484"
         offset="0.57053357"
         style="stop-color:#7f7f84;stop-opacity:1" />
      <stop
         style="stop-color:#a5a6aa;stop-opacity:1"
         offset="0.89746869"
         id="stop5486" />
      <stop
         id="stop5478"
         offset="1"
         style="stop-color:#9b9b9e;stop-opacity:1" />
    </linearGradient>
    <linearGradient
       id="linearGradient5466">
      <stop
         id="stop5468"
         offset="0"
         style="stop-color:#e3e3e3;stop-opacity:1" />
      <stop
         id="stop5470"
         offset="1"
         style="stop-color:#a5a5a8;stop-opacity:1" />
    </linearGradient>
    <linearGradient
       gradientUnits="userSpaceOnUse"
       y2="527.33539"
       x2="286.6308"
       y1="518.55707"
       x1="282.35706"
       id="linearGradient5472"
       xlink:href="#linearGradient5466" />
    <linearGradient
       gradientUnits="userSpaceOnUse"
       y2="532.00739"
       x2="327.79306"
       y1="532.00739"
       x1="288.39856"
       id="linearGradient5480"
       xlink:href="#linearGradient5474" />
    <linearGradient
       gradientTransform="matrix(1.1818182,0,0,1.1818182,-30.64896,-69.394391)"
       y2="527.33539"
       x2="286.6308"
       y1="518.55707"
       x1="282.35706"
       gradientUnits="userSpaceOnUse"
       id="linearGradient5490"
       xlink:href="#linearGradient5466" />
    <linearGradient
       spreadMethod="reflect"
       y2="511.96591"
       x2="286.62845"
       y1="511.96591"
       x1="269.96979"
       gradientTransform="matrix(1.1818182,0,0,1.1818182,-30.64896,-69.394391)"
       gradientUnits="userSpaceOnUse"
       id="linearGradient5493"
       xlink:href="#linearGradient5495" />
    <linearGradient
       gradientTransform="matrix(1.1818182,0,0,1.1818182,-31.65912,-123.63805)"
       y2="527.33539"
       x2="286.6308"
       y1="518.55707"
       x1="282.35706"
       gradientUnits="userSpaceOnUse"
       id="linearGradient6015"
       xlink:href="#linearGradient5466" />
    <linearGradient
       gradientTransform="translate(0,0.25)"
       spreadMethod="reflect"
       gradientUnits="userSpaceOnUse"
       y2="520.32812"
       x2="327.78125"
       y1="522.61218"
       x1="308.5"
       id="linearGradient6041"
       xlink:href="#linearGradient6035" />
    <linearGradient
       gradientTransform="translate(0,16)"
       y2="520.32812"
       x2="327.78125"
       y1="522.61218"
       x1="308.5"
       spreadMethod="reflect"
       gradientUnits="userSpaceOnUse"
       id="linearGradient6045"
       xlink:href="#linearGradient6035" />
    <linearGradient
       y2="520.32812"
       x2="327.78125"
       y1="522.61218"
       x1="308.5"
       spreadMethod="reflect"
       gradientTransform="translate(0,15.417003)"
       gradientUnits="userSpaceOnUse"
       id="linearGradient6049"
       xlink:href="#linearGradient6035" />
    <linearGradient
       y2="520.32812"
       x2="327.78125"
       y1="522.61218"
       x1="308.5"
       spreadMethod="reflect"
       gradientTransform="translate(0,12)"
       gradientUnits="userSpaceOnUse"
       id="linearGradient6052"
       xlink:href="#linearGradient6035" />
    <linearGradient
       y2="520.32812"
       x2="327.78125"
       y1="522.61218"
       x1="308.5"
       spreadMethod="reflect"
       gradientTransform="translate(0,22)"
       gradientUnits="userSpaceOnUse"
       id="linearGradient6056"
       xlink:href="#linearGradient6035" />
    <linearGradient
       y2="520.32812"
       x2="327.78125"
       y1="522.61218"
       x1="308.5"
       spreadMethod="reflect"
       gradientTransform="translate(0,28)"
       gradientUnits="userSpaceOnUse"
       id="linearGradient6064"
       xlink:href="#linearGradient6035" />
    <linearGradient
       y2="520.32812"
       x2="327.78125"
       y1="522.61218"
       x1="308.5"
       spreadMethod="reflect"
       gradientTransform="translate(0,12)"
       gradientUnits="userSpaceOnUse"
       id="linearGradient6077"
       xlink:href="#linearGradient6035" />
    <filter
       color-interpolation-filters="sRGB"
       height="1.3855422"
       y="-0.19277108"
       width="1.1285141"
       x="-0.064257026"
       id="filter6093">
      <feGaussianBlur
         id="feGaussianBlur6095"
         stdDeviation="0.89250425" />
    </filter>
    <linearGradient
       y2="511.96591"
       x2="286.62845"
       y1="511.96591"
       x1="269.96979"
       spreadMethod="reflect"
       gradientTransform="matrix(4.9627313,0,0,4.9627313,-1043.2579,-1925.2143)"
       gradientUnits="userSpaceOnUse"
       id="linearGradient6110"
       xlink:href="#linearGradient5495" />
    <linearGradient
       gradientTransform="matrix(4.9627313,0,0,4.9627313,-1043.2579,-2051.1913)"
       y2="527.33539"
       x2="286.6308"
       y1="518.55707"
       x1="282.35706"
       gradientUnits="userSpaceOnUse"
       id="linearGradient6112"
       xlink:href="#linearGradient5466" />
    <linearGradient
       y2="520.32812"
       x2="327.78125"
       y1="522.61218"
       x1="308.5"
       spreadMethod="reflect"
       gradientTransform="matrix(4.1992341,0,0,4.1992341,-914.55576,-1632.7612)"
       gradientUnits="userSpaceOnUse"
       id="linearGradient6114"
       xlink:href="#linearGradient6035" />
    <linearGradient
       y2="520.32812"
       x2="327.78125"
       y1="522.61218"
       x1="308.5"
       spreadMethod="reflect"
       gradientTransform="translate(0,12)"
       gradientUnits="userSpaceOnUse"
       id="linearGradient6116"
       xlink:href="#linearGradient6035" />
    <linearGradient
       y2="520.32812"
       x2="327.78125"
       y1="522.61218"
       x1="308.5"
       spreadMethod="reflect"
       gradientTransform="translate(0,22)"
       gradientUnits="userSpaceOnUse"
       id="linearGradient6118"
       xlink:href="#linearGradient6035" />
    <filter
       id="filter1325"
       style="color-interpolation-filters:sRGB;">
      <feComposite
         id="feComposite1311"
         result="composite1"
         k2="1"
         k1="0"
         operator="arithmetic"
         in2="SourceGraphic" />
      <feColorMatrix
         id="feColorMatrix1313"
         result="colormatrix1"
         type="saturate"
         values="1"
         in="composite1" />
      <feFlood
         id="feFlood1315"
         result="flood1"
         flood-color="rgb(223,63,0)"
         flood-opacity="1" />
      <feBlend
         id="feBlend1317"
         result="blend1"
         mode="multiply"
         in2="colormatrix1"
         in="flood1" />
      <feBlend
         id="feBlend1319"
         result="blend2"
         mode="screen"
         in2="blend1" />
      <feColorMatrix
         id="feColorMatrix1321"
         result="colormatrix2"
         type="saturate"
         values="1"
         in="blend2" />
      <feComposite
         id="feComposite1323"
         result="composite2"
         k2="1"
         operator="in"
         in2="SourceGraphic"
         in="colormatrix2" />
    </filter>
  </defs>
  <metadata
     id="metadata4">
    <rdf:RDF>
      <cc:Work
         rdf:about="">
        <dc:format>image/svg+xml</dc:format>
        <dc:type
           rdf:resource="http://purl.org/dc/dcmitype/StillImage" />
        <dc:title></dc:title>
      </cc:Work>
    </rdf:RDF>
  </metadata>
  <g
     transform="translate(-285.86708,-510.6882)"
     id="layer1">
    <ellipse
       style="fill:#2e3436;fill-opacity:1;stroke:none;filter:url(#filter6093)"
       id="path6079"
       transform="matrix(4.9627313,0,0,4.9627313,-1076.2579,-1724.8916)"
       cx="286.6308"
       cy="521.77954"
       rx="16.667517"
       ry="5.5558391" />
    <g
       style="filter:url(#filter1325)"
       id="g1245">
      <path
         style="fill:url(#linearGradient6110);fill-opacity:1;stroke:none;stroke-width:4.19923401"
         d="m 296.5296,539.29265 v 126.36297 h 0.5249 c -0.33845,1.01311 -0.5249,1.97499 -0.5249,3.0182 0,15.22768 36.98942,27.55747 82.67242,27.55747 45.68301,0 82.67242,-12.32979 82.67242,-27.55747 0,-1.04473 -0.1856,-2.00366 -0.5249,-3.0182 h 0.5249 V 539.29265 Z"
         id="path5488" />
      <ellipse
         ry="27.572136"
         rx="82.716408"
         cy="538.26038"
         cx="379.21375"
         style="fill:url(#linearGradient6112);fill-opacity:1;stroke:none;stroke-width:4.96273136"
         id="path5460" />
      <path
         style="fill:#565656;fill-opacity:1;stroke:none;stroke-width:4.19923401"
         d="m 296.39837,629.96986 c 0.61876,15.04997 37.50681,27.16379 82.80365,27.16379 45.16814,0 81.85063,-12.04197 82.67242,-27.03257 -14.49374,12.32849 -46.0202,20.86495 -82.67242,20.86495 -36.727,0 -68.35034,-8.62708 -82.80365,-20.99617 z"
         id="path6026" />
      <path
         style="fill:url(#linearGradient6114);fill-opacity:1;stroke:none;stroke-width:4.19923401"
         d="m 296.39837,538.63652 c 0.61876,15.04997 37.50681,27.16379 82.80365,27.16379 45.16814,0 81.85063,-12.04197 82.67242,-27.03257 -0.90586,0.77052 -1.85094,1.49111 -2.88697,2.23085 -0.0378,0.0491 -0.0907,0.0823 -0.13102,0.13101 -9.62523,11.66312 -41.58707,20.20882 -79.65422,20.20882 -38.30554,0 -70.48679,-8.69553 -79.91667,-20.47127 -0.10456,-0.0752 -0.15957,-0.18729 -0.26246,-0.26245 -0.91845,-0.67058 -1.81234,-1.27334 -2.62452,-1.96839 z"
         id="path6030" />
      <g
         id="g6071"
         transform="matrix(4.1992341,0,0,4.1992341,-914.55576,-1633.811)">
        <g
           id="g6067"
           transform="translate(0,-0.52315203)">
          <path
             id="path6022"
             d="m 288.375,529.09375 c 0.14735,3.58398 8.93182,6.46875 19.71875,6.46875 10.75628,0 19.4918,-2.86766 19.6875,-6.4375 -3.45152,2.93589 -10.95919,4.96875 -19.6875,4.96875 -8.74612,0 -16.27686,-2.05444 -19.71875,-5 z"
             style="fill:#565656;fill-opacity:1;stroke:none" />
          <path
             style="fill:url(#linearGradient6116);fill-opacity:1;stroke:none"
             d="m 288.375,529.09375 c 0.14735,3.58398 8.93182,6.46875 19.71875,6.46875 10.75628,0 19.4918,-2.86766 19.6875,-6.4375 -0.0497,0.0422 -0.10543,0.0838 -0.15625,0.125 -1.24216,3.22677 -9.51064,5.71875 -19.53125,5.71875 -10.11275,0 -18.46774,-2.51121 -19.59375,-5.78125 -0.0401,-0.0317 -0.0863,-0.0607 -0.125,-0.0937 z"
             id="path6043" />
        </g>
        <path
           style="fill:url(#linearGradient6118);fill-opacity:1;stroke:none"
           d="m 288.375,539.09375 c 0.14735,3.58398 8.93182,6.46875 19.71875,6.46875 10.75628,0 19.4918,-2.86766 19.6875,-6.4375 -0.0497,0.0422 -0.10543,0.0838 -0.15625,0.125 -1.24216,3.22677 -9.51064,5.71875 -19.53125,5.71875 -10.11275,0 -18.46774,-2.51121 -19.59375,-5.78125 -0.0401,-0.0317 -0.0863,-0.0607 -0.125,-0.0937 z"
           id="path6054" />
      </g>
      <path
         style="fill:#565656;fill-opacity:1;stroke:none;stroke-width:4.19923401"
         d="m 296.92328,675.5053 c 4.72838,13.73167 39.81294,24.27683 82.27874,24.27683 42.07889,0 76.80017,-10.46441 82.01629,-24.01437 -14.76593,12.04252 -45.89158,20.34004 -82.01629,20.34004 -36.31426,0 -67.60779,-8.45617 -82.27874,-20.6025 z"
         id="path6060" />
    </g>
  </g>
</svg>
