<?xml version="1.0" encoding="UTF-8" standalone="no"?>
<!-- Created with Inkscape (http://www.inkscape.org/) -->

<svg
   xmlns:dc="http://purl.org/dc/elements/1.1/"
   xmlns:cc="http://creativecommons.org/ns#"
   xmlns:rdf="http://www.w3.org/1999/02/22-rdf-syntax-ns#"
   xmlns:svg="http://www.w3.org/2000/svg"
   xmlns="http://www.w3.org/2000/svg"
   xmlns:sodipodi="http://sodipodi.sourceforge.net/DTD/sodipodi-0.dtd"
   xmlns:inkscape="http://www.inkscape.org/namespaces/inkscape"
   width="220.25334mm"
   height="309.93143mm"
   viewBox="0 0 220.25334 309.93143"
   version="1.1"
   id="svg1025"
   inkscape:version="0.92.2 (5c3e80d, 2017-08-06)"
   sodipodi:docname="nexico.N.svg"
   inkscape:export-filename="/home/kim/nexico.N.png"
   inkscape:export-xdpi="159.56"
   inkscape:export-ydpi="159.56">
  <defs
     id="defs1019" />
  <sodipodi:namedview
     id="base"
     pagecolor="#ffffff"
     bordercolor="#666666"
     borderopacity="1.0"
     inkscape:pageopacity="0.0"
     inkscape:pageshadow="2"
     inkscape:zoom="0.35"
     inkscape:cx="-1090.0045"
     inkscape:cy="306.02358"
     inkscape:document-units="mm"
     inkscape:current-layer="text2816-6-1-4"
     showgrid="false"
     fit-margin-top="0"
     fit-margin-left="0"
     fit-margin-right="0"
     fit-margin-bottom="0"
     inkscape:window-width="2432"
     inkscape:window-height="1411"
     inkscape:window-x="0"
     inkscape:window-y="0"
     inkscape:window-maximized="1" />
  <metadata
     id="metadata1022">
    <rdf:RDF>
      <cc:Work
         rdf:about="">
        <dc:format>image/svg+xml</dc:format>
        <dc:type
           rdf:resource="http://purl.org/dc/dcmitype/StillImage" />
        <dc:title></dc:title>
      </cc:Work>
    </rdf:RDF>
  </metadata>
  <g
     inkscape:label="Layer 1"
     inkscape:groupmode="layer"
     id="layer1"
     transform="translate(-27.170656,-19.84401)">
    <g
       aria-label="n"
       style="font-style:normal;font-variant:normal;font-weight:normal;font-stretch:normal;font-size:504.56246948px;line-height:125%;font-family:'DemonCubicBlockFont Shade';-inkscape-font-specification:'DemonCubicBlockFont Shade';text-align:start;writing-mode:lr-tb;text-anchor:start;fill:#000000;fill-opacity:1;stroke:none;stroke-width:1.83041406"
       id="text2816-6-1-4">
      <path
         d="m 208.99053,329.77545 -36.95526,-14.28937 -0.49274,-0.98547 V 270.1543 l -35.47704,-13.3039 -0.49274,-0.98547 v -44.34631 l -31.53516,-11.33295 h -0.49273 v 60.11389 l -1.97095,1.97095 L 65.111389,275.5744 28.15613,261.28503 27.170656,260.29956 V 35.11885 l 1.478211,-1.970947 36.955259,-13.303893 36.955254,14.289366 0.98548,0.985474 v 44.346311 l 34.98431,12.811156 0.98547,0.985474 V 137.6081 l 31.53516,11.82568 0.49273,-0.49273 V 88.82716 l 1.47822,-1.478211 36.46252,-13.79663 37.44799,14.289367 0.49274,0.985474 v 225.67345 l -1.97095,1.47821 z m -1.47821,-5.42011 v -39.91168 l -32.02789,-12.31842 v 40.89716 l 31.53515,11.82568 z m 0,-44.83904 V 239.11188 L 175.48443,227.2862 v 40.89715 l 31.53515,11.82568 z M 63.140442,270.64703 V 230.24262 L 31.605287,218.41693 v 40.89716 l 31.535155,11.33294 z M 171.54253,265.71967 V 225.80799 L 139.51464,213.9823 v 40.89716 l 31.53516,11.33294 z m 35.96979,-31.04242 v -40.40442 l -32.02789,-11.82568 v 40.89715 l 31.53515,11.33295 z m -144.371878,-9.362 V 185.40357 L 31.605287,173.57789 v 40.40441 l 31.535155,11.82569 z m 108.402088,-4.43463 v -20.69495 h -0.49273 l -27.59326,9.85474 v 0.98547 l 27.59326,10.34748 z m -35.96978,-13.30389 v -40.40442 l -32.02789,-11.82568 v 40.89715 l 31.53515,11.82568 z m 71.93957,-18.23127 V 149.43378 L 175.48443,137.6081 v 40.40442 l 31.53515,11.82568 z M 63.140442,180.4762 V 140.56452 L 31.605287,128.2461 v 40.89716 l 31.535155,11.82568 z M 167.1079,152.88294 v -1.47821 l -30.05694,-10.84021 -29.56421,10.84021 v 1.47821 l 30.54968,10.84021 z M 99.602964,148.94105 V 109.02937 L 67.575073,96.710948 V 137.6081 l 31.535154,11.82568 z M 207.51232,144.50642 V 104.59474 L 175.48443,92.276317 v 40.897153 l 31.53515,11.82568 z M 63.140442,135.63715 V 95.232738 L 31.605287,83.407055 v 40.897155 l 31.535155,11.33294 z M 131.13812,94.247264 v -0.985473 l -30.05695,-10.84021 -29.564203,10.84021 v 0.985473 L 102.06665,105.08747 Z M 63.140442,90.30537 V 50.39369 L 31.605287,38.568007 V 79.465161 L 63.140442,90.798107 Z M 239.04747,89.812633 V 88.82716 L 208.99053,77.98695 179.42632,88.82716 v 0.985473 L 209.976,100.65284 Z M 95.168333,35.611587 V 34.626113 L 65.111389,23.785904 35.547182,34.626113 v 0.985474 l 30.54968,10.840209 z"
         style="stroke-width:1.83041406"
         id="path1812" />
    </g>
  </g>
</svg>
